<svg width="852" height="913" viewBox="0 0 852 913" fill="none" xmlns="http://www.w3.org/2000/svg">
<g filter="url(#filter0_f_692_5446)">
<path d="M551.609 393.968C551.609 445.771 509.615 487.765 457.812 487.765C406.01 487.765 364.016 445.771 364.016 393.968C364.016 342.166 406.01 300.171 457.812 300.171C509.615 300.171 551.609 342.166 551.609 393.968Z" fill="#FBCA1E"/>
</g>
<g filter="url(#filter1_f_692_5446)">
<path d="M426.547 519.031C426.547 570.834 384.553 612.828 332.75 612.828C280.947 612.828 238.953 570.834 238.953 519.031C238.953 467.229 280.947 425.234 332.75 425.234C384.553 425.234 426.547 467.229 426.547 519.031Z" fill="#FB491E"/>
</g>
<path fill-rule="evenodd" clip-rule="evenodd" d="M299.031 280.406C298.634 280.394 298.303 280.706 298.291 281.103C297.929 292.98 299.913 310.809 307.073 325.698C314.247 340.617 326.67 352.662 347.144 352.662C366.893 352.662 379.14 364.566 386.459 379.607C393.79 394.671 396.115 412.785 395.996 424.867C395.992 425.264 396.31 425.589 396.707 425.593C397.104 425.597 397.429 425.279 397.433 424.882C397.554 412.654 395.209 394.302 387.752 378.978C380.284 363.631 367.626 351.225 347.144 351.225C327.387 351.225 315.384 339.664 308.368 325.075C301.339 310.456 299.371 292.875 299.727 281.146C299.739 280.75 299.428 280.418 299.031 280.406Z" fill="white" fillOpacity="0.04"/>
<path fill-rule="evenodd" clip-rule="evenodd" d="M227.121 280.406C226.724 280.394 226.392 280.706 226.38 281.103C226.285 284.248 227.504 287.708 229.692 291.318C231.885 294.936 235.087 298.763 239.049 302.661C246.973 310.459 258.006 318.607 270.3 326.002C282.597 333.4 296.181 340.06 309.22 344.872C322.249 349.68 334.783 352.662 344.966 352.662C364.733 352.662 377.526 364.577 385.386 379.625C393.256 394.693 396.115 412.803 395.996 424.867C395.993 425.264 396.311 425.589 396.708 425.593C397.105 425.597 397.43 425.279 397.434 424.882C397.555 412.635 394.663 394.28 386.661 378.96C378.648 363.621 365.448 351.225 344.966 351.225C335.026 351.225 322.675 348.305 309.718 343.523C296.772 338.746 283.269 332.127 271.041 324.771C258.809 317.412 247.876 309.331 240.057 301.637C236.147 297.789 233.032 294.055 230.921 290.573C228.805 287.082 227.733 283.903 227.817 281.146C227.829 280.75 227.517 280.418 227.121 280.406Z" fill="white" fillOpacity="0.04"/>
<g filter="url(#filter2_d_692_5446)">
<path fill-rule="evenodd" clip-rule="evenodd" d="M227.12 280.406C226.724 280.394 226.392 280.706 226.38 281.103C226.243 285.611 228.806 290.788 233.133 296.18C237.48 301.598 243.701 307.346 251.094 313.015C251.409 313.257 251.86 313.197 252.102 312.882C252.343 312.567 252.284 312.116 251.969 311.875C244.629 306.246 238.504 300.577 234.254 295.281C229.983 289.958 227.696 285.124 227.817 281.146C227.829 280.75 227.517 280.418 227.12 280.406Z" fill="#FB491E"/>
</g>
<path fill-rule="evenodd" clip-rule="evenodd" d="M494.401 280.408C494.798 280.395 495.129 280.707 495.141 281.104C495.502 292.982 493.518 310.81 486.359 325.699C479.185 340.618 466.762 352.664 446.288 352.664C426.538 352.664 414.292 364.568 406.972 379.609C399.642 394.673 397.317 412.786 397.436 424.869C397.44 425.266 397.121 425.591 396.724 425.595C396.327 425.599 396.002 425.28 395.999 424.883C395.878 412.655 398.223 394.303 405.68 378.98C413.148 363.633 425.806 351.226 446.288 351.226C466.045 351.226 478.048 339.665 485.063 325.076C492.093 310.457 494.061 292.876 493.704 281.148C493.692 280.751 494.004 280.42 494.401 280.408Z" fill="white" fillOpacity="0.04"/>
<g filter="url(#filter3_d_692_5446)">
<path fill-rule="evenodd" clip-rule="evenodd" d="M494.401 280.408C494.798 280.395 495.129 280.707 495.141 281.104C495.488 292.49 493.679 309.338 487.227 323.825C482.847 333.659 476.302 342.459 466.783 347.684C466.436 347.875 465.999 347.748 465.808 347.4C465.617 347.052 465.744 346.615 466.092 346.424C475.248 341.398 481.614 332.894 485.914 323.24C492.254 309.005 494.046 292.386 493.705 281.148C493.693 280.751 494.004 280.42 494.401 280.408Z" fill="#FBCA1E"/>
</g>
<path fill-rule="evenodd" clip-rule="evenodd" d="M564.874 280.408C565.27 280.395 565.602 280.707 565.614 281.104C565.71 284.251 564.478 287.712 562.269 291.322C560.055 294.94 556.824 298.767 552.828 302.665C544.834 310.462 533.709 318.61 521.323 326.005C508.934 333.402 495.259 340.062 482.152 344.874C469.055 349.682 456.477 352.664 446.296 352.664C426.544 352.664 414.294 364.568 406.974 379.609C399.642 394.673 397.317 412.786 397.436 424.869C397.44 425.266 397.121 425.591 396.724 425.595C396.327 425.599 396.002 425.28 395.999 424.883C395.878 412.655 398.223 394.303 405.681 378.98C413.151 363.633 425.811 351.226 446.296 351.226C456.235 351.226 468.631 348.306 481.656 343.524C494.671 338.746 508.265 332.127 520.586 324.771C532.91 317.412 543.935 309.33 551.824 301.636C555.769 297.788 558.912 294.054 561.043 290.571C563.179 287.081 564.261 283.902 564.177 281.148C564.165 280.751 564.477 280.42 564.874 280.408Z" fill="white" fillOpacity="0.04"/>
<path fill-rule="evenodd" clip-rule="evenodd" d="M396.713 280.406C396.316 280.406 395.994 280.728 395.994 281.125L395.994 396.125C395.994 396.521 396.316 396.843 396.713 396.843C397.11 396.843 397.432 396.521 397.432 396.125L397.432 281.125C397.432 280.728 397.11 280.406 396.713 280.406Z" fill="white" fillOpacity="0.04"/>
<path fill-rule="evenodd" clip-rule="evenodd" d="M299.031 632.595C298.634 632.607 298.303 632.295 298.291 631.898C297.929 620.02 299.913 602.192 307.073 587.303C314.247 572.384 326.67 560.339 347.144 560.339C366.893 560.339 379.14 548.435 386.459 533.394C393.79 518.33 396.115 500.216 395.996 488.134C395.992 487.737 396.31 487.412 396.707 487.408C397.104 487.404 397.429 487.722 397.433 488.119C397.554 500.347 395.209 518.699 387.752 534.023C380.284 549.37 367.626 561.776 347.144 561.776C327.387 561.776 315.384 573.337 308.368 587.926C301.339 602.545 299.371 620.126 299.727 631.855C299.739 632.251 299.428 632.583 299.031 632.595Z" fill="white" fillOpacity="0.04"/>
<path fill-rule="evenodd" clip-rule="evenodd" d="M227.121 632.595C226.724 632.607 226.392 632.295 226.38 631.898C226.285 628.753 227.504 625.293 229.692 621.683C231.885 618.065 235.087 614.238 239.049 610.34C246.973 602.542 258.006 594.394 270.3 586.999C282.597 579.601 296.181 572.941 309.22 568.129C322.249 563.321 334.783 560.339 344.966 560.339C364.733 560.339 377.526 548.424 385.386 533.376C393.256 518.308 396.115 500.198 395.996 488.134C395.993 487.737 396.311 487.412 396.708 487.408C397.105 487.404 397.43 487.722 397.434 488.119C397.555 500.366 394.663 518.721 386.661 534.041C378.648 549.38 365.448 561.776 344.966 561.776C335.026 561.776 322.675 564.696 309.718 569.478C296.772 574.255 283.269 580.874 271.041 588.23C258.809 595.589 247.876 603.67 240.057 611.364C236.147 615.212 233.032 618.946 230.921 622.428C228.805 625.919 227.733 629.098 227.817 631.855C227.829 632.251 227.517 632.583 227.121 632.595Z" fill="white" fillOpacity="0.04"/>
<g filter="url(#filter4_d_692_5446)">
<path fill-rule="evenodd" clip-rule="evenodd" d="M227.12 632.595C226.724 632.607 226.392 632.295 226.38 631.898C226.243 627.39 228.806 622.213 233.133 616.821C237.48 611.403 243.701 605.655 251.094 599.986C251.409 599.744 251.86 599.804 252.102 600.119C252.343 600.434 252.284 600.885 251.969 601.126C244.629 606.755 238.504 612.424 234.254 617.72C229.983 623.043 227.696 627.877 227.817 631.855C227.829 632.251 227.517 632.583 227.12 632.595Z" fill="#FB491E"/>
</g>
<path fill-rule="evenodd" clip-rule="evenodd" d="M494.401 632.593C494.798 632.605 495.129 632.294 495.141 631.897C495.502 620.019 493.518 602.191 486.359 587.302C479.185 572.383 466.762 560.337 446.288 560.337C426.538 560.337 414.292 548.433 406.972 533.392C399.642 518.328 397.317 500.215 397.436 488.132C397.44 487.735 397.121 487.41 396.724 487.406C396.327 487.402 396.002 487.721 395.999 488.118C395.878 500.346 398.223 518.697 405.68 534.021C413.148 549.368 425.806 561.775 446.288 561.775C466.045 561.775 478.048 573.336 485.063 587.925C492.093 602.544 494.061 620.125 493.704 631.853C493.692 632.25 494.004 632.581 494.401 632.593Z" fill="white" fillOpacity="0.04"/>
<g filter="url(#filter5_d_692_5446)">
<path fill-rule="evenodd" clip-rule="evenodd" d="M494.401 632.593C494.798 632.605 495.129 632.294 495.141 631.897C495.488 620.511 493.679 603.663 487.227 589.176C482.847 579.342 476.302 570.542 466.783 565.317C466.436 565.126 465.999 565.253 465.808 565.601C465.617 565.949 465.744 566.386 466.092 566.577C475.248 571.603 481.614 580.107 485.914 589.761C492.254 603.996 494.046 620.615 493.705 631.853C493.693 632.25 494.004 632.581 494.401 632.593Z" fill="#FBCA1E"/>
</g>
<path fill-rule="evenodd" clip-rule="evenodd" d="M564.874 632.593C565.27 632.605 565.602 632.294 565.614 631.897C565.71 628.75 564.478 625.289 562.269 621.679C560.055 618.061 556.824 614.234 552.828 610.336C544.834 602.539 533.709 594.391 521.323 586.996C508.934 579.599 495.259 572.939 482.152 568.127C469.055 563.319 456.477 560.337 446.296 560.337C426.544 560.337 414.294 548.433 406.974 533.392C399.642 518.328 397.317 500.215 397.436 488.132C397.44 487.735 397.121 487.41 396.724 487.406C396.327 487.402 396.002 487.721 395.999 488.118C395.878 500.346 398.223 518.698 405.681 534.021C413.151 549.368 425.811 561.775 446.296 561.775C456.235 561.775 468.631 564.695 481.656 569.477C494.671 574.255 508.265 580.874 520.586 588.23C532.91 595.589 543.935 603.671 551.824 611.365C555.769 615.213 558.912 618.947 561.043 622.43C563.179 625.92 564.261 629.099 564.177 631.853C564.165 632.25 564.477 632.581 564.874 632.593Z" fill="white" fillOpacity="0.04"/>
<path fill-rule="evenodd" clip-rule="evenodd" d="M396.713 632.595C396.316 632.595 395.994 632.273 395.994 631.876L395.994 516.876C395.994 516.48 396.316 516.158 396.713 516.158C397.11 516.158 397.432 516.48 397.432 516.876L397.432 631.876C397.432 632.273 397.11 632.595 396.713 632.595Z" fill="white" fillOpacity="0.04"/>
<path fill-rule="evenodd" clip-rule="evenodd" d="M603 554.182C603.012 554.578 602.7 554.91 602.303 554.922C590.425 555.283 572.597 553.299 557.708 546.14C542.789 538.966 530.744 526.543 530.744 506.068C530.744 486.319 518.84 474.072 503.799 466.753C488.735 459.423 470.621 457.098 458.538 457.217C458.141 457.221 457.816 456.902 457.813 456.505C457.809 456.108 458.127 455.783 458.524 455.779C470.752 455.659 489.104 458.004 504.428 465.46C519.775 472.929 532.181 485.587 532.181 506.068C532.181 525.825 543.742 537.829 558.331 544.844C572.95 551.874 590.531 553.842 602.259 553.485C602.656 553.473 602.988 553.785 603 554.182Z" fill="white" fillOpacity="0.04"/>
<path fill-rule="evenodd" clip-rule="evenodd" d="M603 626.092C603.012 626.489 602.7 626.82 602.303 626.832C599.158 626.928 595.698 625.709 592.088 623.521C588.47 621.328 584.643 618.126 580.745 614.164C572.947 606.239 564.799 595.207 557.403 582.913C550.006 570.615 543.346 557.032 538.534 543.992C533.725 530.963 530.743 518.429 530.743 508.246C530.743 488.48 518.829 475.686 503.78 467.826C488.713 459.956 470.603 457.097 458.538 457.216C458.141 457.22 457.816 456.901 457.813 456.504C457.809 456.107 458.127 455.782 458.524 455.779C470.77 455.658 489.125 458.55 504.446 466.552C519.785 474.564 532.181 487.765 532.181 508.246C532.181 518.186 535.101 530.538 539.882 543.494C544.66 556.441 551.279 569.943 558.635 582.172C565.993 594.403 574.075 605.336 581.769 613.156C585.617 617.066 589.351 620.181 592.833 622.291C596.324 624.407 599.503 625.479 602.259 625.395C602.656 625.383 602.988 625.695 603 626.092Z" fill="white" fillOpacity="0.04"/>
<g filter="url(#filter6_d_692_5446)">
<path fill-rule="evenodd" clip-rule="evenodd" d="M603 626.092C603.012 626.489 602.7 626.82 602.303 626.832C597.795 626.969 592.617 624.406 587.225 620.08C581.808 615.732 576.059 609.511 570.391 602.119C570.149 601.804 570.209 601.352 570.524 601.111C570.839 600.869 571.29 600.929 571.531 601.244C577.16 608.584 582.829 614.708 588.125 618.958C593.447 623.229 598.281 625.516 602.259 625.395C602.656 625.383 602.988 625.695 603 626.092Z" fill="#FB491E"/>
</g>
<path fill-rule="evenodd" clip-rule="evenodd" d="M602.998 358.812C603.01 358.415 602.698 358.083 602.301 358.071C590.423 357.71 572.595 359.694 557.706 366.854C542.787 374.027 530.742 386.45 530.742 406.925C530.742 426.674 518.838 438.921 503.797 446.24C488.733 453.571 470.619 455.895 458.536 455.776C458.139 455.773 457.814 456.091 457.811 456.488C457.807 456.885 458.125 457.21 458.522 457.214C470.75 457.334 489.102 454.99 504.426 447.533C519.773 440.065 532.179 427.407 532.179 406.925C532.179 387.168 543.74 375.164 558.329 368.149C572.948 361.119 590.529 359.151 602.257 359.508C602.654 359.52 602.986 359.208 602.998 358.812Z" fill="white" fillOpacity="0.04"/>
<g filter="url(#filter7_d_692_5446)">
<path fill-rule="evenodd" clip-rule="evenodd" d="M603 358.811C603.012 358.414 602.7 358.083 602.303 358.071C590.917 357.725 574.069 359.533 559.583 365.985C549.748 370.366 540.948 376.911 535.723 386.429C535.532 386.777 535.659 387.214 536.007 387.405C536.355 387.596 536.792 387.469 536.983 387.121C542.009 377.965 550.513 371.598 560.167 367.299C574.402 360.959 591.021 359.166 602.259 359.508C602.656 359.52 602.988 359.208 603 358.811Z" fill="#FBCA1E"/>
</g>
<path fill-rule="evenodd" clip-rule="evenodd" d="M602.998 288.339C603.01 287.942 602.698 287.611 602.301 287.598C599.154 287.503 595.693 288.735 592.084 290.943C588.466 293.157 584.638 296.388 580.74 300.385C572.943 308.379 564.796 319.504 557.4 331.889C550.003 344.279 543.343 357.954 538.531 371.061C533.723 384.157 530.742 396.735 530.742 406.916C530.742 426.669 518.838 438.918 503.797 446.238C488.733 453.57 470.619 455.895 458.536 455.776C458.139 455.773 457.814 456.091 457.811 456.488C457.807 456.885 458.125 457.21 458.522 457.214C470.75 457.334 489.102 454.989 504.426 447.531C519.773 440.062 532.179 427.401 532.179 406.916C532.179 396.978 535.099 384.582 539.881 371.556C544.659 358.542 551.278 344.947 558.635 332.626C565.993 320.302 574.075 309.277 581.769 301.388C585.617 297.444 589.351 294.3 592.834 292.169C596.325 290.034 599.503 288.952 602.257 289.035C602.654 289.047 602.986 288.736 602.998 288.339Z" fill="white" fillOpacity="0.04"/>
<path fill-rule="evenodd" clip-rule="evenodd" d="M603 456.5C603 456.896 602.678 457.218 602.281 457.218L487.281 457.218C486.884 457.218 486.563 456.896 486.563 456.5C486.563 456.103 486.884 455.781 487.281 455.781L602.281 455.781C602.678 455.781 603 456.103 603 456.5Z" fill="white" fillOpacity="0.04"/>
<path fill-rule="evenodd" clip-rule="evenodd" d="M189 554.182C188.988 554.578 189.3 554.91 189.697 554.922C201.575 555.283 219.403 553.299 234.292 546.14C249.211 538.966 261.256 526.543 261.256 506.068C261.256 486.319 273.16 474.072 288.201 466.753C303.265 459.423 321.379 457.098 333.462 457.217C333.859 457.221 334.184 456.902 334.187 456.505C334.191 456.108 333.873 455.783 333.476 455.779C321.248 455.659 302.896 458.004 287.572 465.46C272.225 472.929 259.819 485.587 259.819 506.068C259.819 525.825 248.258 537.829 233.669 544.844C219.05 551.874 201.469 553.842 189.741 553.485C189.344 553.473 189.012 553.785 189 554.182Z" fill="white" fillOpacity="0.04"/>
<path fill-rule="evenodd" clip-rule="evenodd" d="M189 626.092C188.988 626.489 189.3 626.82 189.697 626.832C192.842 626.928 196.302 625.709 199.912 623.521C203.53 621.328 207.357 618.126 211.255 614.164C219.053 606.239 227.201 595.207 234.597 582.913C241.994 570.615 248.654 557.032 253.466 543.992C258.275 530.963 261.257 518.429 261.257 508.246C261.257 488.48 273.171 475.686 288.22 467.826C303.287 459.956 321.397 457.097 333.462 457.216C333.859 457.22 334.184 456.901 334.187 456.504C334.191 456.107 333.873 455.782 333.476 455.779C321.23 455.658 302.875 458.55 287.554 466.552C272.215 474.564 259.819 487.765 259.819 508.246C259.819 518.186 256.899 530.538 252.118 543.494C247.34 556.441 240.721 569.943 233.365 582.172C226.007 594.403 217.925 605.336 210.231 613.156C206.383 617.066 202.649 620.181 199.167 622.291C195.676 624.407 192.497 625.479 189.741 625.395C189.344 625.383 189.012 625.695 189 626.092Z" fill="white" fillOpacity="0.04"/>
<g filter="url(#filter8_d_692_5446)">
<path fill-rule="evenodd" clip-rule="evenodd" d="M189 626.092C188.988 626.489 189.3 626.82 189.697 626.832C194.205 626.969 199.383 624.406 204.775 620.08C210.192 615.732 215.941 609.511 221.609 602.119C221.851 601.804 221.791 601.352 221.476 601.111C221.161 600.869 220.71 600.929 220.469 601.244C214.84 608.584 209.171 614.708 203.875 618.958C198.553 623.229 193.719 625.516 189.741 625.395C189.344 625.383 189.012 625.695 189 626.092Z" fill="#FB491E"/>
</g>
<path fill-rule="evenodd" clip-rule="evenodd" d="M189.002 358.812C188.99 358.415 189.302 358.083 189.699 358.071C201.577 357.71 219.405 359.694 234.294 366.854C249.213 374.027 261.258 386.45 261.258 406.925C261.258 426.674 273.162 438.921 288.203 446.24C303.267 453.571 321.381 455.895 333.464 455.776C333.861 455.773 334.186 456.091 334.189 456.488C334.193 456.885 333.875 457.21 333.478 457.214C321.25 457.334 302.898 454.99 287.574 447.533C272.227 440.065 259.821 427.407 259.821 406.925C259.821 387.168 248.26 375.164 233.671 368.149C219.052 361.119 201.471 359.151 189.743 359.508C189.346 359.52 189.014 359.208 189.002 358.812Z" fill="white" fillOpacity="0.04"/>
<g filter="url(#filter9_d_692_5446)">
<path fill-rule="evenodd" clip-rule="evenodd" d="M189 358.811C188.988 358.414 189.3 358.083 189.697 358.071C201.083 357.725 217.931 359.533 232.417 365.985C242.252 370.366 251.052 376.911 256.277 386.429C256.468 386.777 256.341 387.214 255.993 387.405C255.645 387.596 255.208 387.469 255.017 387.121C249.991 377.965 241.487 371.598 231.833 367.299C217.598 360.959 200.979 359.166 189.741 359.508C189.344 359.52 189.012 359.208 189 358.811Z" fill="#FBCA1E"/>
</g>
<path fill-rule="evenodd" clip-rule="evenodd" d="M189.002 288.339C188.99 287.942 189.302 287.611 189.699 287.598C192.846 287.503 196.307 288.735 199.916 290.943C203.534 293.157 207.362 296.388 211.26 300.385C219.057 308.379 227.204 319.504 234.6 331.889C241.997 344.279 248.657 357.954 253.469 371.061C258.277 384.157 261.258 396.735 261.258 406.916C261.258 426.669 273.162 438.918 288.203 446.238C303.267 453.57 321.381 455.895 333.464 455.776C333.861 455.773 334.186 456.091 334.189 456.488C334.193 456.885 333.875 457.21 333.478 457.214C321.25 457.334 302.898 454.989 287.574 447.531C272.227 440.062 259.821 427.401 259.821 406.916C259.821 396.978 256.901 384.582 252.119 371.556C247.341 358.542 240.722 344.947 233.365 332.626C226.007 320.302 217.925 309.277 210.231 301.388C206.383 297.444 202.649 294.3 199.166 292.169C195.675 290.034 192.497 288.952 189.743 289.035C189.346 289.047 189.014 288.736 189.002 288.339Z" fill="white" fillOpacity="0.04"/>
<path fill-rule="evenodd" clip-rule="evenodd" d="M189 456.5C189 456.896 189.322 457.218 189.719 457.218L304.719 457.218C305.116 457.218 305.437 456.896 305.437 456.5C305.437 456.103 305.116 455.781 304.719 455.781L189.719 455.781C189.322 455.781 189 456.103 189 456.5Z" fill="white" fillOpacity="0.04"/>
<g filter="url(#filter10_d_692_5446)">
<path d="M466 456.5C466 495.557 434.338 527.219 395.281 527.219C356.224 527.219 324.562 495.557 324.562 456.5C324.562 417.443 356.224 385.781 395.281 385.781C434.338 385.781 466 417.443 466 456.5Z" fill="#101010"/>
<path d="M371.731 439.194C371.716 439.376 371.709 439.56 371.709 439.746V447.398C378.337 442.608 386.48 439.785 395.282 439.785C404.084 439.785 412.227 442.608 418.855 447.397V439.746C418.855 439.56 418.847 439.376 418.833 439.193C412.317 435.431 404.817 433.183 396.814 432.927H393.75C385.747 433.183 378.247 435.432 371.731 439.194Z" fill="white"/>
<path d="M418.855 462.931V452.828C412.537 447.357 404.296 444.046 395.282 444.046C386.268 444.046 378.027 447.357 371.709 452.829V462.931C377.008 455.656 385.593 450.928 395.282 450.928C404.971 450.928 413.556 455.656 418.855 462.931Z" fill="white"/>
<path d="M418.855 472.084C415.527 462.26 406.23 455.19 395.282 455.19C384.334 455.19 375.037 462.26 371.709 472.084V473.255C371.709 476.595 374.111 479.374 377.281 479.959C377.342 470.07 385.378 462.072 395.282 462.072C405.186 462.072 413.222 470.07 413.283 479.959C416.453 479.374 418.855 476.595 418.855 473.255V472.084Z" fill="white"/>
<path d="M402.14 480.073H409.022C409.022 472.485 402.87 466.334 395.282 466.334C387.694 466.334 381.543 472.485 381.543 480.073H388.425C388.425 476.286 391.495 473.216 395.282 473.216C399.07 473.216 402.14 476.286 402.14 480.073Z" fill="white"/>
<path d="M397.878 480.073C397.878 478.639 396.716 477.477 395.282 477.477C393.849 477.477 392.686 478.639 392.686 480.073H397.878Z" fill="white"/>
</g>
<defs>
<filter id="filter0_f_692_5446" x="64.0156" y="0.171387" width="787.594" height="787.594" filterUnits="userSpaceOnUse" color-interpolation-filters="sRGB">
<feFlood flood-opacity="0" result="BackgroundImageFix"/>
<feBlend mode="normal" in="SourceGraphic" in2="BackgroundImageFix" result="shape"/>
<feGaussianBlur stdDeviation="150" result="effect1_foregroundBlur_692_5446"/>
</filter>
<filter id="filter1_f_692_5446" x="-61.0469" y="125.234" width="787.594" height="787.594" filterUnits="userSpaceOnUse" color-interpolation-filters="sRGB">
<feFlood flood-opacity="0" result="BackgroundImageFix"/>
<feBlend mode="normal" in="SourceGraphic" in2="BackgroundImageFix" result="shape"/>
<feGaussianBlur stdDeviation="150" result="effect1_foregroundBlur_692_5446"/>
</filter>
<filter id="filter2_d_692_5446" x="218.375" y="272.406" width="41.875" height="48.7578" filterUnits="userSpaceOnUse" color-interpolation-filters="sRGB">
<feFlood flood-opacity="0" result="BackgroundImageFix"/>
<feColorMatrix in="SourceAlpha" type="matrix" values="0 0 0 0 0 0 0 0 0 0 0 0 0 0 0 0 0 0 127 0" result="hardAlpha"/>
<feOffset/>
<feGaussianBlur stdDeviation="4"/>
<feComposite in2="hardAlpha" operator="out"/>
<feColorMatrix type="matrix" values="0 0 0 0 0.984314 0 0 0 0 0.286275 0 0 0 0 0.117647 0 0 0 1 0"/>
<feBlend mode="normal" in2="BackgroundImageFix" result="effect1_dropShadow_692_5446"/>
<feBlend mode="normal" in="SourceGraphic" in2="effect1_dropShadow_692_5446" result="shape"/>
</filter>
<filter id="filter3_d_692_5446" x="457.719" y="272.407" width="45.4629" height="83.3657" filterUnits="userSpaceOnUse" color-interpolation-filters="sRGB">
<feFlood flood-opacity="0" result="BackgroundImageFix"/>
<feColorMatrix in="SourceAlpha" type="matrix" values="0 0 0 0 0 0 0 0 0 0 0 0 0 0 0 0 0 0 127 0" result="hardAlpha"/>
<feOffset/>
<feGaussianBlur stdDeviation="4"/>
<feComposite in2="hardAlpha" operator="out"/>
<feColorMatrix type="matrix" values="0 0 0 0 0.984314 0 0 0 0 0.793647 0 0 0 0 0.117647 0 0 0 1 0"/>
<feBlend mode="normal" in2="BackgroundImageFix" result="effect1_dropShadow_692_5446"/>
<feBlend mode="normal" in="SourceGraphic" in2="effect1_dropShadow_692_5446" result="shape"/>
</filter>
<filter id="filter4_d_692_5446" x="218.375" y="591.837" width="41.875" height="48.7578" filterUnits="userSpaceOnUse" color-interpolation-filters="sRGB">
<feFlood flood-opacity="0" result="BackgroundImageFix"/>
<feColorMatrix in="SourceAlpha" type="matrix" values="0 0 0 0 0 0 0 0 0 0 0 0 0 0 0 0 0 0 127 0" result="hardAlpha"/>
<feOffset/>
<feGaussianBlur stdDeviation="4"/>
<feComposite in2="hardAlpha" operator="out"/>
<feColorMatrix type="matrix" values="0 0 0 0 0.984314 0 0 0 0 0.286275 0 0 0 0 0.117647 0 0 0 1 0"/>
<feBlend mode="normal" in2="BackgroundImageFix" result="effect1_dropShadow_692_5446"/>
<feBlend mode="normal" in="SourceGraphic" in2="effect1_dropShadow_692_5446" result="shape"/>
</filter>
<filter id="filter5_d_692_5446" x="457.719" y="557.228" width="45.4629" height="83.3657" filterUnits="userSpaceOnUse" color-interpolation-filters="sRGB">
<feFlood flood-opacity="0" result="BackgroundImageFix"/>
<feColorMatrix in="SourceAlpha" type="matrix" values="0 0 0 0 0 0 0 0 0 0 0 0 0 0 0 0 0 0 127 0" result="hardAlpha"/>
<feOffset/>
<feGaussianBlur stdDeviation="4"/>
<feComposite in2="hardAlpha" operator="out"/>
<feColorMatrix type="matrix" values="0 0 0 0 0.984314 0 0 0 0 0.793647 0 0 0 0 0.117647 0 0 0 1 0"/>
<feBlend mode="normal" in2="BackgroundImageFix" result="effect1_dropShadow_692_5446"/>
<feBlend mode="normal" in="SourceGraphic" in2="effect1_dropShadow_692_5446" result="shape"/>
</filter>
<filter id="filter6_d_692_5446" x="562.242" y="592.962" width="48.7578" height="41.875" filterUnits="userSpaceOnUse" color-interpolation-filters="sRGB">
<feFlood flood-opacity="0" result="BackgroundImageFix"/>
<feColorMatrix in="SourceAlpha" type="matrix" values="0 0 0 0 0 0 0 0 0 0 0 0 0 0 0 0 0 0 127 0" result="hardAlpha"/>
<feOffset/>
<feGaussianBlur stdDeviation="4"/>
<feComposite in2="hardAlpha" operator="out"/>
<feColorMatrix type="matrix" values="0 0 0 0 0.984314 0 0 0 0 0.286275 0 0 0 0 0.117647 0 0 0 1 0"/>
<feBlend mode="normal" in2="BackgroundImageFix" result="effect1_dropShadow_692_5446"/>
<feBlend mode="normal" in="SourceGraphic" in2="effect1_dropShadow_692_5446" result="shape"/>
</filter>
<filter id="filter7_d_692_5446" x="527.635" y="350.03" width="83.3652" height="45.4634" filterUnits="userSpaceOnUse" color-interpolation-filters="sRGB">
<feFlood flood-opacity="0" result="BackgroundImageFix"/>
<feColorMatrix in="SourceAlpha" type="matrix" values="0 0 0 0 0 0 0 0 0 0 0 0 0 0 0 0 0 0 127 0" result="hardAlpha"/>
<feOffset/>
<feGaussianBlur stdDeviation="4"/>
<feComposite in2="hardAlpha" operator="out"/>
<feColorMatrix type="matrix" values="0 0 0 0 0.984314 0 0 0 0 0.793647 0 0 0 0 0.117647 0 0 0 1 0"/>
<feBlend mode="normal" in2="BackgroundImageFix" result="effect1_dropShadow_692_5446"/>
<feBlend mode="normal" in="SourceGraphic" in2="effect1_dropShadow_692_5446" result="shape"/>
</filter>
<filter id="filter8_d_692_5446" x="181" y="592.962" width="48.7578" height="41.875" filterUnits="userSpaceOnUse" color-interpolation-filters="sRGB">
<feFlood flood-opacity="0" result="BackgroundImageFix"/>
<feColorMatrix in="SourceAlpha" type="matrix" values="0 0 0 0 0 0 0 0 0 0 0 0 0 0 0 0 0 0 127 0" result="hardAlpha"/>
<feOffset/>
<feGaussianBlur stdDeviation="4"/>
<feComposite in2="hardAlpha" operator="out"/>
<feColorMatrix type="matrix" values="0 0 0 0 0.984314 0 0 0 0 0.286275 0 0 0 0 0.117647 0 0 0 1 0"/>
<feBlend mode="normal" in2="BackgroundImageFix" result="effect1_dropShadow_692_5446"/>
<feBlend mode="normal" in="SourceGraphic" in2="effect1_dropShadow_692_5446" result="shape"/>
</filter>
<filter id="filter9_d_692_5446" x="181" y="350.03" width="83.3652" height="45.4634" filterUnits="userSpaceOnUse" color-interpolation-filters="sRGB">
<feFlood flood-opacity="0" result="BackgroundImageFix"/>
<feColorMatrix in="SourceAlpha" type="matrix" values="0 0 0 0 0 0 0 0 0 0 0 0 0 0 0 0 0 0 127 0" result="hardAlpha"/>
<feOffset/>
<feGaussianBlur stdDeviation="4"/>
<feComposite in2="hardAlpha" operator="out"/>
<feColorMatrix type="matrix" values="0 0 0 0 0.984314 0 0 0 0 0.793647 0 0 0 0 0.117647 0 0 0 1 0"/>
<feBlend mode="normal" in2="BackgroundImageFix" result="effect1_dropShadow_692_5446"/>
<feBlend mode="normal" in="SourceGraphic" in2="effect1_dropShadow_692_5446" result="shape"/>
</filter>
<filter id="filter10_d_692_5446" x="308.562" y="373.781" width="173.438" height="173.438" filterUnits="userSpaceOnUse" color-interpolation-filters="sRGB">
<feFlood flood-opacity="0" result="BackgroundImageFix"/>
<feColorMatrix in="SourceAlpha" type="matrix" values="0 0 0 0 0 0 0 0 0 0 0 0 0 0 0 0 0 0 127 0" result="hardAlpha"/>
<feOffset dy="4"/>
<feGaussianBlur stdDeviation="8"/>
<feComposite in2="hardAlpha" operator="out"/>
<feColorMatrix type="matrix" values="0 0 0 0 0 0 0 0 0 0 0 0 0 0 0 0 0 0 0.25 0"/>
<feBlend mode="normal" in2="BackgroundImageFix" result="effect1_dropShadow_692_5446"/>
<feBlend mode="normal" in="SourceGraphic" in2="effect1_dropShadow_692_5446" result="shape"/>
</filter>
</defs>
</svg>
